PathFileType	4	(X/Y/Z)	/Users/visionmauri/Downloads/Videos/OAW07-top_Sports2D/OAW07-top_Sports2D_m_person00.trc
DataRate	CameraRate	NumFrames	NumMarkers	Units	OrigDataRate	OrigDataStartFrame	OrigNumFrames
30.0	30.0	10	22	m	30.0	1430	2861
Frame#	Time	Hip			RHip			RKnee			RAnkle			RBigToe			RSmallToe			RHeel			LHip			LKnee			LAnkle			LBigToe			LSmallToe			LHeel			Neck			Head			Nose			RShoulder			RElbow			RWrist			LShoulder			LElbow			LWrist			
		X1	Y1	Z1	X2	Y2	Z2	X3	Y3	Z3	X4	Y4	Z4	X5	Y5	Z5	X6	Y6	Z6	X7	Y7	Z7	X8	Y8	Z8	X9	Y9	Z9	X10	Y10	Z10	X11	Y11	Z11	X12	Y12	Z12	X13	Y13	Z13	X14	Y14	Z14	X15	Y15	Z15	X16	Y16	Z16	X17	Y17	Z17	X18	Y18	Z18	X19	Y19	Z19	X20	Y20	Z20	X21	Y21	Z21	X22	Y22	Z22
1594	53.150903880070544	1.6333618169752633	0.5713901654797725	0.0301	1.6156078370209526	0.5412048090496012	0.0301	1.7135057113875498	0.4315804527988277	0.129	1.8020888672741764	0.35236018919445955	0.023	1.837132019915788	0.2950700194858967	0.2179	1.821540163158454	0.2925248253129273	0.1804	1.8272078217871106	0.34748122234855416	-0.0119	1.6614117051028385	0.592333173980282	0.0301	1.7674067866846426	0.4863018695155404	0.129	1.8602382352385898	0.39702644345724286	0.023	1.8985086736919776	0.3448031547798572	0.2179	1.909010412718611	0.36529679793582664	0.1804	1.8689300972548286	0.38006213410822076	-0.0119	1.4837242912782707	0.7054736597241994	0.0008	1.4203169987665825	0.7563324164387132	0.0655	1.4737306833072086	0.7094870313081565	0.1076	1.4557108382727768	0.6439253811140788	-0.01275	1.5193509718008251	0.560815763890895	0.0702	1.5823091213639897	0.5074725479932916	0.1076	1.546240115219358	0.7430779736080415	-0.01275	1.6406006418220433	0.6850990460876071	0.0702	1.7107841000822746	0.6292963567039371	0.1076
1595	53.18424823633156	1.6356788486357012	0.5697611654575189	0.0301	1.6174012971250642	0.5401378253257343	0.0301	1.7172215923530838	0.43204368149692945	0.129	1.8080799503818596	0.34910549182422373	0.023	1.8419071088653538	0.29154726607873294	0.2179	1.8264476327164088	0.28900325134301325	0.1804	1.8326108401781322	0.34264458425120803	-0.0119	1.662126244594441	0.5910903146138394	0.0301	1.7693780225637958	0.4857295704009724	0.129	1.8616095729867794	0.394990326361078	0.023	1.8996661853945511	0.34428839268405265	0.2179	1.9088967402369308	0.36437305149323107	0.1804	1.8709945102621999	0.37800198221165165	-0.0119	1.4866970502583814	0.7045379787079618	0.0008	1.4215922545719113	0.7579439369308618	0.0655	1.479239568509963	0.707300531887562	0.1076	1.4558867696480327	0.6446699242338786	-0.01275	1.520799790265166	0.5605134034170726	0.0702	1.5822687011731733	0.5069162634577281	0.1076	1.5479392026276957	0.744632647125755	-0.01275	1.6431792287450475	0.683772450428216	0.0702	1.7138428474793364	0.6279173982210584	0.1076
1596	53.21759259259259	1.638565796219992	0.5682855306333625	0.0301	1.6195916314385568	0.539258965249483	0.0301	1.7209875604612668	0.4322903373179205	0.129	1.8137894886302806	0.34631781232012115	0.023	1.8494498432428885	0.28888529518152284	0.2179	1.8330193759649918	0.28546140414452514	0.1804	1.8361271309336864	0.3388949199130667	-0.0119	1.6637489184788221	0.5898837207151411	0.0301	1.7712491391502894	0.48517812313932246	0.129	1.862960612453231	0.39271313703975747	0.023	1.8997916393072458	0.34362741552379905	0.2179	1.9084101580244663	0.36305801922955283	0.1804	1.8733356593308432	0.3762354992841349	-0.0119	1.4896499351921104	0.7041914594807058	0.0008	1.4230436476690225	0.7600099938374695	0.0655	1.4855433395780884	0.7051262006505539	0.1076	1.4565351004804354	0.6454741232682676	-0.01275	1.522363711475645	0.5597977627426238	0.0702	1.5823897737085582	0.5067779524325392	0.1076	1.5491643022649504	0.7461830822674227	-0.01275	1.6458967381601872	0.6830558214131593	0.0702	1.7175273960808461	0.6254697395343644	0.1076
1597	53.25093694885361	1.6405372303055998	0.567641362860196	0.0301	1.6216037959670044	0.5388623622781639	0.0301	1.7250296370875047	0.4319190755922071	0.129	1.8182441573900785	0.3436967160333769	0.023	1.858282102511187	0.28821373857737304	0.2179	1.8404251713789677	0.2832163468484913	0.1804	1.8387575762924757	0.33554749965491587	-0.0119	1.6658223401510093	0.5893698477554621	0.0301	1.773129987744205	0.48398370782444905	0.129	1.8637447640816125	0.39139624449391003	0.023	1.8990060463097393	0.34255196655714587	0.2179	1.9081361270576747	0.36153202002417156	0.1804	1.8748210156120413	0.3754149944657366	-0.0119	1.491504329653406	0.7054347213890337	0.0008	1.4250312148614526	0.7618406708761071	0.0655	1.4881561313467009	0.7053275247098069	0.1076	1.4573937427334718	0.6462536336190026	-0.01275	1.5227688125223668	0.559637250627952	0.0702	1.5827749431823248	0.5072744812985572	0.1076	1.550349446066445	0.7469636031425637	-0.01275	1.647710599837752	0.682689690956816	0.0702	1.719732954017489	0.6233480095246083	0.1076
1598	53.28428130511463	1.6414970870203187	0.5679309279429544	0.0301	1.6232731535205052	0.5387241287396876	0.0301	1.7290262360623123	0.4316948638532938	0.129	1.8218115976579892	0.3408251023352473	0.023	1.8658465031862275	0.2888425536189832	0.2179	1.8471155021865642	0.2823413590514453	0.1804	1.8415975807472098	0.332191963241741	-0.0119	1.6678692035189633	0.589598041334017	0.0301	1.7751293540242723	0.482629627645983	0.129	1.8641730844741227	0.3906344505573535	0.023	1.898403408429163	0.3418010595168376	0.2179	1.9083185107136473	0.3607226220151666	0.1804	1.875304640091243	0.37476656172653444	-0.0119	1.4926780194222058	0.7069021639230525	0.0008	1.4266867863935073	0.7634144100453832	0.0655	1.4871886877525047	0.7073052547670396	0.1076	1.4583372054187338	0.6462657250877543	-0.01275	1.5223059420794856	0.5599530960240718	0.0702	1.5837471720030756	0.5077988133643869	0.1076	1.5522313634270013	0.7466301106273721	-0.01275	1.6488982311874476	0.68214864234411	0.0702	1.7201132159383208	0.622353905125582	0.1076
1599	53.31762566137566	1.6420510003310453	0.5683625771591474	0.0301	1.6243443172030796	0.5384310362510266	0.0301	1.732174301926274	0.4324490202467433	0.129	1.8251770889172867	0.3379703860383873	0.023	1.870467656737722	0.29023198068245243	0.2179	1.851888316039539	0.2823482381535205	0.1804	1.8447176426486207	0.3289555800336222	-0.0119	1.6694042658856993	0.5898616227390131	0.0301	1.77698106335663	0.4817667658466029	0.129	1.8643770377843136	0.3897441771957343	0.023	1.898515931774436	0.3418238644753933	0.2179	1.9087895607757208	0.3609321376286073	0.1804	1.8753927072834105	0.3737746515372377	-0.0119	1.4935203970045237	0.7070891509095718	0.0008	1.4268254645378347	0.7641985724853252	0.0655	1.4861441000611144	0.7086390225125211	0.1076	1.4593286210316418	0.6453190643640341	-0.01275	1.5222831423508318	0.5597486009359581	0.0702	1.585190945552183	0.5076299416471495	0.1076	1.5543450725777823	0.7454237998814502	-0.01275	1.6498370219098775	0.6815236890562038	0.0702	1.719635672841488	0.6223518450734018	0.1076
1600	53.350970017636676	1.6425655187636743	0.5683584321980658	0.0301	1.6249436853966515	0.5383206334365987	0.0301	1.7344861241010403	0.43407896443559485	0.129	1.8282176345672532	0.3364714214407563	0.023	1.8725321289030745	0.2924243130775604	0.2179	1.8547395018748243	0.28324432933505117	0.1804	1.8475417181663372	0.32615870194436475	-0.0119	1.6702228207905294	0.5896147618041494	0.0301	1.7785846504665161	0.48128915897869246	0.129	1.8643096396918042	0.38899443972785724	0.023	1.8988113762415053	0.34206649225975216	0.2179	1.9091227224335867	0.36139087261068914	0.1804	1.8754309945965926	0.37272507049441056	-0.0119	1.4935580197601668	0.7067530439714347	0.0008	1.425385819599605	0.7640669992586852	0.0655	1.486097541972481	0.7089289379165991	0.1076	1.4602577318951726	0.6439850483447366	-0.01275	1.5229661162337755	0.5590313998298638	0.0702	1.5864193366698083	0.5069813553854766	0.1076	1.5557121398032177	0.744350094777174	-0.01275	1.6506919615803055	0.6810795365113419	0.0702	1.7185396976884777	0.6230944954868657	0.1076
1601	53.3843143738977	1.6432764658671346	0.5683798300359542	0.0301	1.6256577639152634	0.5388364828047968	0.0301	1.7366216800590506	0.4361676791157183	0.129	1.83068190970394	0.3373344176384108	0.023	1.874019274487519	0.29525296167048254	0.2179	1.8568835041503686	0.28541304849631294	0.1804	1.8498736107738538	0.3244304428065574	-0.0119	1.670659599963305	0.5892539721076769	0.0301	1.7801701223165685	0.48096477676218274	0.129	1.8642120895827037	0.38896151608250074	0.023	1.8988617306545157	0.3420328813982485	0.2179	1.9091305550533046	0.36142920302305526	0.1804	1.8754634831953263	0.3722045346249959	-0.0119	1.4932331586831977	0.706545781485023	0.0008	1.4237175645486895	0.7636127768944034	0.0655	1.4857901469746273	0.7091014533241745	0.1076	1.4609889540315384	0.6425444489098224	-0.01275	1.52378428965047	0.5581256773417953	0.0702	1.587118584159549	0.5062674532284414	0.1076	1.5560390572737373	0.7442193550968139	-0.01275	1.6516318556493697	0.6809507973121565	0.0702	1.7166567389354122	0.6242873522269469	0.1076
1602	53.41765873015873	1.644183761141273	0.5686244326906501	0.0301	1.6267724693540384	0.5392200660481846	0.0301	1.7384495258089427	0.4382653532146084	0.129	1.8333050874248373	0.33966880049772247	0.023	1.8770008977294603	0.29849005043631655	0.2179	1.860067680510966	0.2886525625318183	0.1804	1.8524023134211025	0.32430747789045583	-0.0119	1.6714125103783326	0.5889760257591315	0.0301	1.7816500477079256	0.4806796928316042	0.129	1.8642723798480323	0.3895370953158975	0.023	1.899016480965701	0.34220573326017556	0.2179	1.9091811368166072	0.36131435180270716	0.1804	1.8758051137515548	0.3725900273240053	-0.0119	1.4940628453813274	0.7047122890053119	0.0008	1.4229476615360996	0.7624728211162621	0.0655	1.4848521094679012	0.7088515718029443	0.1076	1.4616396283021695	0.6406442214424162	-0.01275	1.524531423706936	0.5561809393432541	0.0702	1.5878615345008833	0.50507035740744	0.1076	1.555689428662555	0.7443811071739761	-0.01275	1.6524550781716962	0.6813235523634318	0.0702	1.7148948068587841	0.6251505446114021	0.1076
1603	53.451003086419746	1.6450492651580197	0.56816702703223	0.0301	1.6280927804827854	0.538544289832235	0.0301	1.7397412626946318	0.43955042412038303	0.129	1.837569151513903	0.34179073088626	0.023	1.8827348543122453	0.30171323235846453	0.2179	1.8657456018657141	0.2917937730740074	0.1804	1.8564053990209004	0.3253159808690115	-0.0119	1.672613030433937	0.5881408460271362	0.0301	1.7828741012574536	0.4801957435195077	0.129	1.8647136750599864	0.3900437636721204	0.023	1.8998816391546307	0.34342778357752235	0.2179	1.9096275273343044	0.3616318379693292	0.1804	1.8770869672170352	0.3734880026228834	-0.0119	1.4964548053625009	0.7000707702156828	0.0008	1.4234214851714773	0.7594986394737127	0.0655	1.4846477262310185	0.706838398233849	0.1076	1.4625617860972366	0.6380506606080554	-0.01275	1.525503183144471	0.5523735378049667	0.0702	1.5893219698398886	0.5029295004661386	0.1076	1.555329429781474	0.7434737250311371	-0.01275	1.6529891420776832	0.6821487979520361	0.0702	1.7143679406702623	0.6249962345755187	0.1076
